<?xml version="1.0" encoding="utf-8"?>
<!-- Generator: Adobe Illustrator 16.0.0, SVG Export Plug-In . SVG Version: 6.00 Build 0)  -->
<svg version="1.2" baseProfile="tiny" id="Layer_1" xmlns="http://www.w3.org/2000/svg" xmlns:xlink="http://www.w3.org/1999/xlink"
	 x="0px" y="0px" width="24px" height="24px" viewBox="0 0 24 24" xml:space="preserve">
<path id="A-Box" fill="#92CDE4" d="M13.683,13.145c-0.328,0.473-0.874,0.783-1.493,0.783c-0.667,0-1.248-0.36-1.563-0.895
	L7.002,6.966L12,10l11-9L13.683,13.145z M19,8.678V15h-4c0,1.66-1.35,3-3,3c-1.649,0-3-1.34-3-3H5V5h10.742l2.445-2H4.99
	C3.88,3,3.01,3.891,3.01,5L3.002,16.061L3,19c0,1.1,0.88,2,1.99,2H19c1.1,0,2-0.9,2-2V6.071L19,8.678z"/>
</svg>
