<?xml version="1.0" encoding="utf-8"?>
<!-- Generator: Adobe Illustrator 16.0.0, SVG Export Plug-In . SVG Version: 6.00 Build 0)  -->
<!DOCTYPE svg PUBLIC "-//W3C//DTD SVG 1.1//EN" "http://www.w3.org/Graphics/SVG/1.1/DTD/svg11.dtd">
<svg version="1.1" id="Layer_1" xmlns="http://www.w3.org/2000/svg" xmlns:xlink="http://www.w3.org/1999/xlink" x="0px" y="0px"
	 width="24px" height="24px" viewBox="0 0 24 24" enable-background="new 0 0 24 24" xml:space="preserve">
<g id="Chat_1_">
	<path fill="#546E7A" d="M12,2C6.478,2,2,5.582,2,10c0,4.298,4.242,7.795,9.558,7.982c0.027,0.203,0.043,0.41,0.043,0.621
		c0,1.407-0.625,2.645-1.57,3.371c4.436-0.857,7.055-3.017,7.368-6.102c0.3-2.965-1.53-5.99-3.666-7.494
		C13.379,8.612,12.956,8.75,12.5,8.75c-0.117,0-0.229-0.017-0.341-0.035l-1.497,2.78c0.362,0.399,0.588,0.924,0.588,1.505
		c0,1.243-1.007,2.25-2.25,2.25c-1.242,0-2.25-1.007-2.25-2.25S7.758,10.75,9,10.75c0.117,0,0.229,0.017,0.341,0.034l1.497-2.78
		C10.477,7.605,10.25,7.081,10.25,6.5c0-1.242,1.008-2.249,2.25-2.249c1.243,0,2.25,1.007,2.25,2.249
		c0,0.235-0.046,0.457-0.113,0.669c2.649,1.87,4.475,5.406,4.268,8.595C20.805,14.307,22,12.271,22,10C22,5.582,17.521,2,12,2z"/>
</g>
</svg>
